<svg width="64" height="64" viewBox="0 0 64 64" fill="none" xmlns="http://www.w3.org/2000/svg">
<path d="M40.3522 20.3897C41.0842 21.1217 42.2702 21.1237 43.0022 20.3897L45.6102 17.7817C46.3412 17.0497 46.3392 15.8637 45.6102 15.1307L39.0272 8.54973C38.2972 7.81773 37.1112 7.81773 36.3792 8.54973L33.7702 11.1577C33.0402 11.8897 33.0402 13.0757 33.7702 13.8057L40.3522 20.3897Z" fill="url(#paint0_linear_22728_12648)"/>
<path d="M24.766 36.2677C25.497 36.9967 26.683 36.9967 27.414 36.2677L30.023 33.6577C30.755 32.9277 30.755 31.7407 30.023 31.0087L23.44 24.4257C22.709 23.6957 21.523 23.6937 20.791 24.4257L18.183 27.0337C17.451 27.7657 17.453 28.9517 18.183 29.6837L24.766 36.2677Z" fill="url(#paint1_linear_22728_12648)"/>
<path d="M54.6481 36.8938L52.0011 34.2438C51.2671 33.5138 50.0841 33.5138 49.3531 34.2438L48.1921 35.4038L36.9871 24.1968L39.4141 21.7688L32.6811 15.0378L30.2531 17.4658L27.1611 20.5558L24.7871 22.9298L31.5191 29.6628L33.8961 27.2898L45.0991 38.4948L44.0511 39.5438C43.3191 40.2728 43.3171 41.4598 44.0511 42.1918L46.6981 44.8398C47.4321 45.5738 48.6171 45.5738 49.3481 44.8398L54.6471 39.5428C55.3801 38.8098 55.3801 37.6258 54.6481 36.8938Z" fill="url(#paint2_linear_22728_12648)"/>
<path d="M35.077 44.9428C35.077 43.7438 34.105 42.7698 32.904 42.7698H15.936C14.736 42.7698 13.763 43.7438 13.763 44.9428V48.4698H9V55.8588H39.558V48.4698H35.077V44.9428Z" fill="url(#paint3_linear_22728_12648)"/>
<defs>
<linearGradient id="paint0_linear_22728_12648" x1="39.6902" y1="8.00073" x2="39.6902" y2="20.9395" gradientUnits="userSpaceOnUse">
<stop stop-color="#EF8080"/>
<stop offset="1" stop-color="#F0145A"/>
</linearGradient>
<linearGradient id="paint1_linear_22728_12648" x1="24.1034" y1="23.8774" x2="24.1034" y2="36.8144" gradientUnits="userSpaceOnUse">
<stop stop-color="#EF8080"/>
<stop offset="1" stop-color="#F0145A"/>
</linearGradient>
<linearGradient id="paint2_linear_22728_12648" x1="39.992" y1="15.0378" x2="39.992" y2="45.3903" gradientUnits="userSpaceOnUse">
<stop stop-color="#EF8080"/>
<stop offset="1" stop-color="#F0145A"/>
</linearGradient>
<linearGradient id="paint3_linear_22728_12648" x1="24.279" y1="42.7698" x2="24.279" y2="55.8588" gradientUnits="userSpaceOnUse">
<stop stop-color="#EF8080"/>
<stop offset="1" stop-color="#F0145A"/>
</linearGradient>
</defs>
</svg>
