<svg xmlns="http://www.w3.org/2000/svg" xmlns:xlink="http://www.w3.org/1999/xlink"><defs>
<clipPath id="clip0_22728_12366">
<rect width="42" height="42"/>
</clipPath>

<clipPath id="clip0_22721_7601">
<rect width="24" height="24" transform="translate(0 0.499512)"/>
</clipPath>

<linearGradient id="paint0_linear_22728_12283" x1="46.0584" y1="22" x2="46.0584" y2="42.125" gradientUnits="userSpaceOnUse">
<stop stop-color="#EF8080"/>
<stop offset="1" stop-color="#F0145A"/>
</linearGradient>
<linearGradient id="paint1_linear_22728_12283" x1="46" y1="37.631" x2="46" y2="70" gradientUnits="userSpaceOnUse">
<stop stop-color="#EF8080"/>
<stop offset="1" stop-color="#F0145A"/>
</linearGradient>

<linearGradient id="paint0_linear_22728_12620" x1="32.0166" y1="35.0764" x2="32.0166" y2="58" gradientUnits="userSpaceOnUse">
<stop stop-color="#EF8080"/>
<stop offset="1" stop-color="#F0145A"/>
</linearGradient>
<linearGradient id="paint1_linear_22728_12620" x1="32.0166" y1="35.0764" x2="32.0166" y2="43.7205" gradientUnits="userSpaceOnUse">
<stop stop-color="#EF8080"/>
<stop offset="1" stop-color="#F0145A"/>
</linearGradient>
<linearGradient id="paint2_linear_22728_12620" x1="32.0164" y1="15.1426" x2="32.0164" y2="32.9867" gradientUnits="userSpaceOnUse">
<stop stop-color="#EF8080"/>
<stop offset="1" stop-color="#F0145A"/>
</linearGradient>
<linearGradient id="paint3_linear_22728_12620" x1="32.0165" y1="5.95435" x2="32.0165" y2="13.1377" gradientUnits="userSpaceOnUse">
<stop stop-color="#EF8080"/>
<stop offset="1" stop-color="#F0145A"/>
</linearGradient>

<linearGradient id="paint0_linear_22728_12627" x1="31.9998" y1="0" x2="31.9998" y2="64" gradientUnits="userSpaceOnUse">
<stop stop-color="#EF8080"/>
<stop offset="1" stop-color="#F0145A"/>
</linearGradient>
<linearGradient id="paint1_linear_22728_12627" x1="32" y1="21.2498" x2="32" y2="42.7497" gradientUnits="userSpaceOnUse">
<stop stop-color="#EF8080"/>
<stop offset="1" stop-color="#F0145A"/>
</linearGradient>
<clipPath id="clip0_22728_12627">
<rect width="64" height="64"/>
</clipPath>

<linearGradient id="paint0_linear_22728_12634" x1="32.5059" y1="56" x2="32.5059" y2="62" gradientUnits="userSpaceOnUse">
<stop stop-color="#EF8080"/>
<stop offset="1" stop-color="#F0145A"/>
</linearGradient>
<linearGradient id="paint1_linear_22728_12634" x1="8.45531" y1="9.16969" x2="11.9909" y2="12.7052" gradientUnits="userSpaceOnUse">
<stop stop-color="#EF8080"/>
<stop offset="1" stop-color="#F0145A"/>
</linearGradient>
<linearGradient id="paint2_linear_22728_12634" x1="47.3449" y1="4.08942" x2="60.78" y2="17.5245" gradientUnits="userSpaceOnUse">
<stop stop-color="#EF8080"/>
<stop offset="1" stop-color="#F0145A"/>
</linearGradient>
<linearGradient id="paint3_linear_22728_12634" x1="32.1427" y1="7.97876" x2="32.1427" y2="37.0306" gradientUnits="userSpaceOnUse">
<stop stop-color="#EF8080"/>
<stop offset="1" stop-color="#F0145A"/>
</linearGradient>
<linearGradient id="paint4_linear_22728_12634" x1="32.4121" y1="17.4875" x2="32.4121" y2="54.9314" gradientUnits="userSpaceOnUse">
<stop stop-color="#EF8080"/>
<stop offset="1" stop-color="#F0145A"/>
</linearGradient>

<linearGradient id="paint0_linear_22728_12641" x1="31.9999" y1="4.45752" x2="31.9999" y2="56.3324" gradientUnits="userSpaceOnUse">
<stop stop-color="#EF8080"/>
<stop offset="1" stop-color="#F0145A"/>
</linearGradient>
<linearGradient id="paint1_linear_22728_12641" x1="41.2314" y1="40.1577" x2="41.2314" y2="63.5423" gradientUnits="userSpaceOnUse">
<stop stop-color="#EF8080"/>
<stop offset="1" stop-color="#F0145A"/>
</linearGradient>

<linearGradient id="paint0_linear_22728_12648" x1="39.6902" y1="8.00073" x2="39.6902" y2="20.9395" gradientUnits="userSpaceOnUse">
<stop stop-color="#EF8080"/>
<stop offset="1" stop-color="#F0145A"/>
</linearGradient>
<linearGradient id="paint1_linear_22728_12648" x1="24.1034" y1="23.8774" x2="24.1034" y2="36.8144" gradientUnits="userSpaceOnUse">
<stop stop-color="#EF8080"/>
<stop offset="1" stop-color="#F0145A"/>
</linearGradient>
<linearGradient id="paint2_linear_22728_12648" x1="39.992" y1="15.0378" x2="39.992" y2="45.3903" gradientUnits="userSpaceOnUse">
<stop stop-color="#EF8080"/>
<stop offset="1" stop-color="#F0145A"/>
</linearGradient>
<linearGradient id="paint3_linear_22728_12648" x1="24.279" y1="42.7698" x2="24.279" y2="55.8588" gradientUnits="userSpaceOnUse">
<stop stop-color="#EF8080"/>
<stop offset="1" stop-color="#F0145A"/>
</linearGradient>
</defs><symbol id="arrow" viewBox="0 0 12 13">
<path d="M3.5 2L8 6.5L3.5 11" stroke="#24A3FF" stroke-width="2"/>
</symbol><symbol id="btn-scroll" viewBox="0 0 42 42">
<g clip-path="url(#clip0_22728_12366)">
<circle opacity="0.5" cx="21" cy="21" r="20" stroke="white" stroke-width="2"/>
<path d="M12 18L21 27L30 18" stroke="white" stroke-width="2"/>
</g>

</symbol><symbol id="fb" viewBox="0 0 24 25">
<g clip-path="url(#clip0_22721_7601)">
<path d="M24 12.5728C24 5.90492 18.6274 0.499512 12 0.499512C5.37258 0.499512 0 5.90492 0 12.5728C0 18.599 4.38823 23.5938 10.125 24.4995V16.0628H7.07813V12.5728H10.125V9.91294C10.125 6.88706 11.9165 5.21566 14.6576 5.21566C15.9705 5.21566 17.3438 5.45147 17.3438 5.45147V8.42264H15.8306C14.3399 8.42264 13.875 9.3533 13.875 10.3081V12.5728H17.2031L16.6711 16.0628H13.875V24.4995C19.6118 23.5938 24 18.599 24 12.5728Z"/>
</g>

</symbol><symbol id="ic-profits-01" viewBox="0 0 92 92">
<rect width="92" height="92" rx="24"/>
<path d="M37.7339 42.125C38.8379 42.125 39.7339 41.229 39.7339 40.125V32.325C39.7339 28.838 42.5709 26 46.0579 26C49.5449 26 52.3829 28.838 52.3829 32.325V40.125C52.3829 41.229 53.2779 42.125 54.3829 42.125C55.4869 42.125 56.3829 41.229 56.3829 40.125V32.325C56.3839 26.632 51.7519 22 46.0579 22C40.3659 22 35.7339 26.632 35.7339 32.325V40.125C35.7339 41.229 36.6299 42.125 37.7339 42.125Z"/>
<path d="M69 37.631H58.384V40.125C58.384 42.331 56.59 44.125 54.384 44.125C52.178 44.125 50.384 42.331 50.384 40.125V37.631H41.735V40.125C41.735 42.331 39.941 44.125 37.735 44.125C35.529 44.125 33.735 42.331 33.735 40.125V37.631H23C22.448 37.631 22.107 38.066 22.238 38.602L29.236 67.099C29.658 68.701 31.344 70 33 70H59C60.658 70 62.342 68.701 62.766 67.099L69.762 38.602C69.893 38.065 69.553 37.631 69 37.631Z"/>
<path d="M42.6001 48.4C42.6001 47.6265 43.2266 47 44.0001 47C44.7736 47 45.4001 47.6265 45.4001 48.4V55.35L45.4001 54C45.4001 53.2265 46.0266 52.6 46.8001 52.6C47.5736 52.6 48.2001 53.2265 48.2001 54V55.6764C48.2127 54.9141 48.8346 53.3 49.6 53.3C50.3731 53.3 50.9999 53.9268 51 54.7C51 54.7 51.0411 55.7411 51.1332 55.8033C51.3572 55.3285 51.8402 54 52.4 54C53.1732 54 53.8 54.6268 53.8 55.4V62.4C53.8 63.9463 52.5463 65.2 51 65.2H46.3198C44.8344 65.2 43.4099 64.6099 42.3599 63.5599L40.15 61.35L37 59.9402C37.0051 58.6033 38.0526 58.2 39.1 58.2C40.0023 58.2 40.8136 58.3407 42.6 59.25L42.6001 48.4Z"/>

</symbol><symbol id="ic-profits-02" viewBox="0 0 64 64">
<path fill-rule="evenodd" clip-rule="evenodd" d="M53.4512 35.0764V52.3716C53.4512 55.4649 51.0269 58 48.0631 58H15.9701C13.0063 58 10.582 55.4649 10.582 52.3716V35.0764H27.2481V42.5872L32.0166 45.7207L36.7851 42.5872V35.0764H53.4512Z"/>
<path fill-rule="evenodd" clip-rule="evenodd" d="M28.9185 35.0764V41.6849L32.0166 43.7205L35.1146 41.6849V35.0764H28.9185Z"/>
<path fill-rule="evenodd" clip-rule="evenodd" d="M12.0732 15.1426H51.9597C53.8421 15.1426 55.3805 16.8507 55.3805 18.938V29.1912C55.3805 31.2786 53.8421 32.9867 51.9597 32.9867H36.3137H27.7192H12.0732C10.1908 32.9867 8.65234 31.2786 8.65234 29.1912V18.938C8.65234 16.8507 10.1908 15.1426 12.0732 15.1426Z"/>
<path fill-rule="evenodd" clip-rule="evenodd" d="M23.7117 5.95435H40.3213C41.8644 5.95435 43.1272 7.21714 43.1272 8.7603V13.1377H39.5697V10.5508C39.5697 9.85347 38.9996 9.28097 38.3022 9.28097H25.7308C25.0334 9.28097 24.4633 9.85347 24.4633 10.5508V13.1377H20.9058V8.7603C20.9058 7.21714 22.1686 5.95435 23.7117 5.95435Z"/>

</symbol><symbol id="ic-profits-03" viewBox="0 0 64 64">
<g clip-path="url(#clip0_22728_12627)">
<path d="M60.5262 37.7273C59.8387 37.4426 59.115 37.2982 58.3751 37.2982C56.7434 37.2982 55.2361 37.9946 54.1895 39.1615L52.9695 38.6562L49.4894 37.2147C49.9833 35.5616 50.2498 33.8113 50.2498 31.9998C50.2498 30.1883 49.9831 28.4381 49.4894 26.7849L52.9695 25.3435L54.1895 24.8381C55.2361 26.0051 56.7434 26.7014 58.3751 26.7014C59.115 26.7014 59.8387 26.5571 60.5262 26.2722C63.3916 25.0852 64.7574 21.7883 63.5704 18.9227C62.6964 16.8128 60.6559 15.4493 58.3721 15.4493C57.6322 15.4493 56.9085 15.5937 56.221 15.8786C53.9627 16.814 52.6372 19.0598 52.7572 21.3722L51.5301 21.8805L48.0511 23.3215C46.361 20.208 43.7915 17.6383 40.678 15.9483L42.119 12.4694L42.6268 11.2436C42.7251 11.2487 42.8238 11.2517 42.9228 11.2517C45.2066 11.2517 47.247 9.88836 48.1211 7.77836C49.308 4.91287 47.9424 1.61587 45.0769 0.428874C44.3893 0.144375 43.6656 0 42.9258 0C40.6419 0 38.6015 1.36337 37.7274 3.47337C36.792 5.73161 37.4428 8.25698 39.1628 9.80723L38.6563 11.0301L37.2148 14.5102C35.5617 14.0165 33.8114 13.7498 31.9999 13.7498C30.1884 13.7498 28.4382 14.0165 26.785 14.5102L25.3435 11.0301L24.8371 9.80723C26.557 8.25698 27.2078 5.73161 26.2724 3.47324C25.3983 1.36337 23.3577 0 21.0739 0C20.3341 0 19.6103 0.144375 18.9228 0.429249C16.0574 1.61625 14.6917 4.91312 15.8787 7.77874C16.7527 9.88861 18.7932 11.2521 21.0769 11.2521C21.1759 11.2521 21.2746 11.2491 21.3729 11.244L21.8807 12.4697L23.3217 15.9487C20.2082 17.6388 17.6386 20.2083 15.9486 23.3218L12.4696 21.8808L11.2425 21.3726C11.3625 19.0602 10.037 16.8143 7.77871 15.8788C7.09121 15.5941 6.36746 15.4497 5.62759 15.4497C3.34372 15.4497 1.30335 16.8131 0.429222 18.9231C-0.757651 21.7886 0.607971 25.0856 3.47347 26.2726C4.16096 26.5573 4.88471 26.7017 5.62459 26.7017C7.25633 26.7017 8.76358 26.0053 9.8102 24.8383L11.0302 25.3437L14.5103 26.7852C14.0164 28.4383 13.7499 30.1886 13.7499 32.0001C13.7499 33.8116 14.0166 35.5618 14.5103 37.2149L11.0301 38.6562L9.81008 39.1615C8.76346 37.9946 7.25621 37.2982 5.62446 37.2982C4.88459 37.2982 4.16084 37.4426 3.47334 37.7274C0.607971 38.9144 -0.757776 42.2113 0.429222 45.0769C1.30322 47.1868 3.34372 48.5503 5.62746 48.5503C6.36734 48.5503 7.09108 48.4059 7.77858 48.121C10.0368 47.1857 11.3623 44.9398 11.2423 42.6274L12.4694 42.1192L15.9484 40.6782C17.6386 43.7917 20.2081 46.3613 23.3216 48.0513L21.8806 51.5303L21.3728 52.756C21.2744 52.7509 21.1758 52.7479 21.0768 52.7479C18.7929 52.7479 16.7526 54.1113 15.8784 56.2213C14.6916 59.0868 16.0572 62.3838 18.9227 63.5708C19.6102 63.8555 20.3339 63.9999 21.0738 63.9999C23.3577 63.9999 25.3981 62.6365 26.2722 60.5265C27.2075 58.2683 26.5568 55.7429 24.8368 54.1926L25.3433 52.9698L26.7848 49.4897C28.4379 49.9834 30.1882 50.25 31.9997 50.25C33.8112 50.25 35.5614 49.9834 37.2145 49.4897L38.656 52.9698L39.1625 54.1926C37.4425 55.7429 36.7918 58.2683 37.7272 60.5266C38.6012 62.6365 40.6416 64 42.9254 64C43.6653 64 44.389 63.8556 45.0765 63.5708C47.9419 62.3838 49.3076 59.0869 48.1206 56.2213C47.2466 54.1114 45.2061 52.7479 42.9224 52.7479C42.8234 52.7479 42.7248 52.7509 42.6264 52.756L42.1186 51.5303L40.6776 48.0513C43.7911 46.3612 46.3608 43.7917 48.0508 40.6782L51.5298 42.1192L52.7569 42.6274C52.6369 44.9398 53.9624 47.1857 56.2206 48.1212C56.9081 48.4059 57.6319 48.5503 58.3717 48.5503C60.6556 48.5503 62.696 47.1869 63.5701 45.0769C64.7574 42.2113 63.3919 38.9143 60.5262 37.7273ZM31.9999 46.4998C24.0047 46.4998 17.4999 39.995 17.4999 31.9998C17.4999 24.0046 24.0047 17.4998 31.9999 17.4998C39.9952 17.4998 46.4999 24.0046 46.4999 31.9998C46.4999 39.995 39.995 46.4998 31.9999 46.4998Z"/>
<path d="M60.5262 37.7273C59.8387 37.4426 59.115 37.2982 58.3751 37.2982C56.7434 37.2982 55.2361 37.9946 54.1895 39.1615L52.9695 38.6562L49.4894 37.2147C49.9833 35.5616 50.2498 33.8113 50.2498 31.9998C50.2498 30.1883 49.9831 28.4381 49.4894 26.7849L52.9695 25.3435L54.1895 24.8381C55.2361 26.0051 56.7434 26.7014 58.3751 26.7014C59.115 26.7014 59.8387 26.5571 60.5262 26.2722C63.3916 25.0852 64.7574 21.7883 63.5704 18.9227C62.6964 16.8128 60.6559 15.4493 58.3721 15.4493C57.6322 15.4493 56.9085 15.5937 56.221 15.8786C53.9627 16.814 52.6372 19.0598 52.7572 21.3722L51.5301 21.8805L48.0511 23.3215C46.361 20.208 43.7915 17.6383 40.678 15.9483L42.119 12.4694L42.6268 11.2436C42.7251 11.2487 42.8238 11.2517 42.9228 11.2517C45.2066 11.2517 47.247 9.88836 48.1211 7.77836C49.308 4.91287 47.9424 1.61587 45.0769 0.428874C44.3893 0.144375 43.6656 0 42.9258 0C40.6419 0 38.6015 1.36337 37.7274 3.47337C36.792 5.73161 37.4428 8.25698 39.1628 9.80723L38.6563 11.0301L37.2148 14.5102C35.5617 14.0165 33.8114 13.7498 31.9999 13.7498C30.1884 13.7498 28.4382 14.0165 26.785 14.5102L25.3435 11.0301L24.8371 9.80723C26.557 8.25698 27.2078 5.73161 26.2724 3.47324C25.3983 1.36337 23.3577 0 21.0739 0C20.3341 0 19.6103 0.144375 18.9228 0.429249C16.0574 1.61625 14.6917 4.91312 15.8787 7.77874C16.7527 9.88861 18.7932 11.2521 21.0769 11.2521C21.1759 11.2521 21.2746 11.2491 21.3729 11.244L21.8807 12.4697L23.3217 15.9487C20.2082 17.6388 17.6386 20.2083 15.9486 23.3218L12.4696 21.8808L11.2425 21.3726C11.3625 19.0602 10.037 16.8143 7.77871 15.8788C7.09121 15.5941 6.36746 15.4497 5.62759 15.4497C3.34372 15.4497 1.30335 16.8131 0.429222 18.9231C-0.757651 21.7886 0.607971 25.0856 3.47347 26.2726C4.16096 26.5573 4.88471 26.7017 5.62459 26.7017C7.25633 26.7017 8.76358 26.0053 9.8102 24.8383L11.0302 25.3437L14.5103 26.7852C14.0164 28.4383 13.7499 30.1886 13.7499 32.0001C13.7499 33.8116 14.0166 35.5618 14.5103 37.2149L11.0301 38.6562L9.81008 39.1615C8.76346 37.9946 7.25621 37.2982 5.62446 37.2982C4.88459 37.2982 4.16084 37.4426 3.47334 37.7274C0.607971 38.9144 -0.757776 42.2113 0.429222 45.0769C1.30322 47.1868 3.34372 48.5503 5.62746 48.5503C6.36734 48.5503 7.09108 48.4059 7.77858 48.121C10.0368 47.1857 11.3623 44.9398 11.2423 42.6274L12.4694 42.1192L15.9484 40.6782C17.6386 43.7917 20.2081 46.3613 23.3216 48.0513L21.8806 51.5303L21.3728 52.756C21.2744 52.7509 21.1758 52.7479 21.0768 52.7479C18.7929 52.7479 16.7526 54.1113 15.8784 56.2213C14.6916 59.0868 16.0572 62.3838 18.9227 63.5708C19.6102 63.8555 20.3339 63.9999 21.0738 63.9999C23.3577 63.9999 25.3981 62.6365 26.2722 60.5265C27.2075 58.2683 26.5568 55.7429 24.8368 54.1926L25.3433 52.9698L26.7848 49.4897C28.4379 49.9834 30.1882 50.25 31.9997 50.25C33.8112 50.25 35.5614 49.9834 37.2145 49.4897L38.656 52.9698L39.1625 54.1926C37.4425 55.7429 36.7918 58.2683 37.7272 60.5266C38.6012 62.6365 40.6416 64 42.9254 64C43.6653 64 44.389 63.8556 45.0765 63.5708C47.9419 62.3838 49.3076 59.0869 48.1206 56.2213C47.2466 54.1114 45.2061 52.7479 42.9224 52.7479C42.8234 52.7479 42.7248 52.7509 42.6264 52.756L42.1186 51.5303L40.6776 48.0513C43.7911 46.3612 46.3608 43.7917 48.0508 40.6782L51.5298 42.1192L52.7569 42.6274C52.6369 44.9398 53.9624 47.1857 56.2206 48.1212C56.9081 48.4059 57.6319 48.5503 58.3717 48.5503C60.6556 48.5503 62.696 47.1869 63.5701 45.0769C64.7574 42.2113 63.3919 38.9143 60.5262 37.7273ZM31.9999 46.4998C24.0047 46.4998 17.4999 39.995 17.4999 31.9998C17.4999 24.0046 24.0047 17.4998 31.9999 17.4998C39.9952 17.4998 46.4999 24.0046 46.4999 31.9998C46.4999 39.995 39.995 46.4998 31.9999 46.4998Z"/>
<path d="M32 21.2498C26.0725 21.2498 21.25 26.0722 21.25 31.9997C21.25 37.9272 26.0725 42.7497 32 42.7497C37.9275 42.7497 42.75 37.9272 42.75 31.9997C42.75 26.0722 37.9275 21.2498 32 21.2498ZM33.875 36.1247H30.125V27.8747H33.875V36.1247Z"/>
<path d="M32 21.2498C26.0725 21.2498 21.25 26.0722 21.25 31.9997C21.25 37.9272 26.0725 42.7497 32 42.7497C37.9275 42.7497 42.75 37.9272 42.75 31.9997C42.75 26.0722 37.9275 21.2498 32 21.2498ZM33.875 36.1247H30.125V27.8747H33.875V36.1247Z"/>
</g>

</symbol><symbol id="ic-profits-04" viewBox="0 0 64 64">
<path d="M42.0059 56H23.0059V62H42.0059V56Z"/>
<path d="M42.0059 56H23.0059V62H42.0059V56Z"/>
<path d="M15.1728 2.45216L1.73779 15.8872L5.27333 19.4227L18.7084 5.98771L15.1728 2.45216Z"/>
<path d="M15.1728 2.45216L1.73779 15.8872L5.27333 19.4227L18.7084 5.98771L15.1728 2.45216Z"/>
<path d="M49.1127 2.32166L45.5771 5.85718L59.0122 19.2922L62.5477 15.7567L49.1127 2.32166Z"/>
<path d="M49.1127 2.32166L45.5771 5.85718L59.0122 19.2922L62.5477 15.7567L49.1127 2.32166Z"/>
<path d="M44.5564 9.70672L41.8651 9.59265C41.089 9.48311 40.2981 9.55542 39.5548 9.80387C38.8115 10.0523 38.1361 10.4701 37.5819 11.0243L32.0775 16.5287L26.3239 10.7752C25.8244 10.2871 25.2011 9.94457 24.5214 9.78441C23.8416 9.62425 23.131 9.65255 22.4661 9.86627C21.8388 10.057 21.1715 10.0738 20.5355 9.91469C19.8995 9.75561 19.3186 9.42671 18.8551 8.96312L18.0012 8.10924L7.39453 18.7158L9.12253 20.4438L9.00845 23.135C8.89891 23.9111 8.97122 24.702 9.21966 25.4453C9.46811 26.1886 9.8859 26.864 10.4401 27.4182L20.0525 37.0306C20.181 35.7688 20.7856 34.6034 21.7432 33.7717L18.7482 30.7768L19.4553 30.0697L22.5836 33.1979C23.027 32.9455 23.5068 32.7631 24.0059 32.6574V28.9634L22.2838 27.2413L22.9908 26.5341L24.0059 27.5492V22.1993C23.9948 21.3151 24.3086 20.4575 24.8879 19.7893C25.4672 19.1211 26.2716 18.6887 27.1485 18.5743C27.4792 18.5422 27.8128 18.5573 28.1393 18.6191L26.9098 17.3897L27.6169 16.6826L29.4131 18.4787C29.7312 17.8623 30.2233 17.3529 30.8283 17.0137C31.4333 16.6745 32.1246 16.5203 32.8165 16.5704C33.6513 16.6679 34.4258 17.0545 35.0057 17.663C35.5855 18.2716 35.9342 19.0638 35.9913 19.9024C36.5596 19.6323 37.1894 19.5177 37.8165 19.5704C38.7075 19.6771 39.5273 20.1109 40.1166 20.7878C40.7059 21.4646 41.0229 22.3362 41.0059 23.2335V26.6574C41.916 26.8474 42.7551 27.2873 43.4292 27.9276C44.1032 28.5679 44.5855 29.3834 44.822 30.2825L47.6105 27.494L48.3176 28.2012L45.0023 31.5164C45.0024 31.5301 45.0059 31.543 45.0059 31.5568V34.8768C45.9043 34.7828 46.7437 34.3847 47.3848 33.7484L54.225 26.9082C54.7131 26.4087 55.0556 25.7854 55.2158 25.1056C55.3759 24.4258 55.3476 23.7152 55.1339 23.0504C54.9431 22.4231 54.9264 21.7558 55.0855 21.1198C55.2445 20.4837 55.5735 19.9029 56.0371 19.4393L56.8909 18.5854L46.2844 7.97876L44.5564 9.70672Z"/>
<path d="M44.5564 9.70672L41.8651 9.59265C41.089 9.48311 40.2981 9.55542 39.5548 9.80387C38.8115 10.0523 38.1361 10.4701 37.5819 11.0243L32.0775 16.5287L26.3239 10.7752C25.8244 10.2871 25.2011 9.94457 24.5214 9.78441C23.8416 9.62425 23.131 9.65255 22.4661 9.86627C21.8388 10.057 21.1715 10.0738 20.5355 9.91469C19.8995 9.75561 19.3186 9.42671 18.8551 8.96312L18.0012 8.10924L7.39453 18.7158L9.12253 20.4438L9.00845 23.135C8.89891 23.9111 8.97122 24.702 9.21966 25.4453C9.46811 26.1886 9.8859 26.864 10.4401 27.4182L20.0525 37.0306C20.181 35.7688 20.7856 34.6034 21.7432 33.7717L18.7482 30.7768L19.4553 30.0697L22.5836 33.1979C23.027 32.9455 23.5068 32.7631 24.0059 32.6574V28.9634L22.2838 27.2413L22.9908 26.5341L24.0059 27.5492V22.1993C23.9948 21.3151 24.3086 20.4575 24.8879 19.7893C25.4672 19.1211 26.2716 18.6887 27.1485 18.5743C27.4792 18.5422 27.8128 18.5573 28.1393 18.6191L26.9098 17.3897L27.6169 16.6826L29.4131 18.4787C29.7312 17.8623 30.2233 17.3529 30.8283 17.0137C31.4333 16.6745 32.1246 16.5203 32.8165 16.5704C33.6513 16.6679 34.4258 17.0545 35.0057 17.663C35.5855 18.2716 35.9342 19.0638 35.9913 19.9024C36.5596 19.6323 37.1894 19.5177 37.8165 19.5704C38.7075 19.6771 39.5273 20.1109 40.1166 20.7878C40.7059 21.4646 41.0229 22.3362 41.0059 23.2335V26.6574C41.916 26.8474 42.7551 27.2873 43.4292 27.9276C44.1032 28.5679 44.5855 29.3834 44.822 30.2825L47.6105 27.494L48.3176 28.2012L45.0023 31.5164C45.0024 31.5301 45.0059 31.543 45.0059 31.5568V34.8768C45.9043 34.7828 46.7437 34.3847 47.3848 33.7484L54.225 26.9082C54.7131 26.4087 55.0556 25.7854 55.2158 25.1056C55.3759 24.4258 55.3476 23.7152 55.1339 23.0504C54.9431 22.4231 54.9264 21.7558 55.0855 21.1198C55.2445 20.4837 55.5735 19.9029 56.0371 19.4393L56.8909 18.5854L46.2844 7.97876L44.5564 9.70672Z"/>
<path d="M29.8802 21.6894C29.8042 21.0397 29.4757 20.4461 28.9657 20.0366C28.4557 19.6271 27.8051 19.4346 27.1544 19.5007C26.5232 19.5878 25.946 19.9038 25.5326 20.3887C25.1192 20.8735 24.8984 21.4934 24.9121 22.1304V33.4877C23.8512 33.4877 22.8338 33.9092 22.0837 34.6593C21.3335 35.4094 20.9121 36.4269 20.9121 37.4877V47.1612C20.9202 47.8596 21.1187 48.5425 21.4861 49.1364C21.8536 49.7303 22.376 50.2128 22.9973 50.5318C23.5757 50.8404 24.0594 51.3004 24.3967 51.8627C24.734 52.4249 24.9121 53.0682 24.9121 53.7238V54.9314H39.9121V52.4877L41.8958 50.6653C42.522 50.1941 43.0301 49.5837 43.38 48.8824C43.73 48.1811 43.9121 47.4081 43.9121 46.6243V31.4877C43.9121 30.4269 43.4907 29.4094 42.7405 28.6593C41.9904 27.9092 40.973 27.4877 39.9121 27.4877V23.1652C39.9291 22.5179 39.706 21.8873 39.2857 21.3948C38.8655 20.9022 38.2778 20.5826 37.636 20.4976C37.006 20.4419 36.3785 20.6278 35.8804 21.0175C35.3824 21.4073 35.0511 21.9718 34.9537 22.5966H35.4121V38.04H34.4121V22.5966H34.9121V20.1652C34.9291 19.5179 34.706 18.8873 34.2857 18.3948C33.8655 17.9022 33.2778 17.5826 32.636 17.4976C32.2902 17.4665 31.9417 17.5078 31.6128 17.6189C31.2838 17.7299 30.9816 17.9082 30.7254 18.1425C30.4691 18.3767 30.2645 18.6618 30.1245 18.9795C29.9845 19.2972 29.9121 19.6405 29.9121 19.9877V21.6894H30.4121V37.1327H29.4121V21.6894H29.8802ZM25.3113 42.04H24.3113V34.04H25.3113V42.04ZM39.4121 27.7982H40.4121V38.2416H39.4121V27.7982Z"/>
<path d="M29.8802 21.6894C29.8042 21.0397 29.4757 20.4461 28.9657 20.0366C28.4557 19.6271 27.8051 19.4346 27.1544 19.5007C26.5232 19.5878 25.946 19.9038 25.5326 20.3887C25.1192 20.8735 24.8984 21.4934 24.9121 22.1304V33.4877C23.8512 33.4877 22.8338 33.9092 22.0837 34.6593C21.3335 35.4094 20.9121 36.4269 20.9121 37.4877V47.1612C20.9202 47.8596 21.1187 48.5425 21.4861 49.1364C21.8536 49.7303 22.376 50.2128 22.9973 50.5318C23.5757 50.8404 24.0594 51.3004 24.3967 51.8627C24.734 52.4249 24.9121 53.0682 24.9121 53.7238V54.9314H39.9121V52.4877L41.8958 50.6653C42.522 50.1941 43.0301 49.5837 43.38 48.8824C43.73 48.1811 43.9121 47.4081 43.9121 46.6243V31.4877C43.9121 30.4269 43.4907 29.4094 42.7405 28.6593C41.9904 27.9092 40.973 27.4877 39.9121 27.4877V23.1652C39.9291 22.5179 39.706 21.8873 39.2857 21.3948C38.8655 20.9022 38.2778 20.5826 37.636 20.4976C37.006 20.4419 36.3785 20.6278 35.8804 21.0175C35.3824 21.4073 35.0511 21.9718 34.9537 22.5966H35.4121V38.04H34.4121V22.5966H34.9121V20.1652C34.9291 19.5179 34.706 18.8873 34.2857 18.3948C33.8655 17.9022 33.2778 17.5826 32.636 17.4976C32.2902 17.4665 31.9417 17.5078 31.6128 17.6189C31.2838 17.7299 30.9816 17.9082 30.7254 18.1425C30.4691 18.3767 30.2645 18.6618 30.1245 18.9795C29.9845 19.2972 29.9121 19.6405 29.9121 19.9877V21.6894H30.4121V37.1327H29.4121V21.6894H29.8802ZM25.3113 42.04H24.3113V34.04H25.3113V42.04ZM39.4121 27.7982H40.4121V38.2416H39.4121V27.7982Z"/>

</symbol><symbol id="ic-profits-05" viewBox="0 0 64 64">
<path d="M41.2317 37.6965C43.5839 37.6965 45.9096 38.2849 47.9577 39.3979C48.3296 39.5984 48.6709 39.8372 49.0194 40.0672C52.3807 33.4873 54.1545 26.5283 54.1545 19.7393C54.1545 19.3578 54.1545 18.9639 54.1423 18.5701C54.1177 18.0163 53.7238 17.5362 53.1699 17.4132C45.7361 15.7886 39.0038 11.7639 33.7115 5.78242L32.9238 4.8839C32.6899 4.61317 32.3577 4.46548 32.0007 4.46548C31.6192 4.41628 31.3238 4.60085 31.0899 4.85934L29.8838 6.18859C24.8623 11.7147 18.5361 15.5301 11.5946 17.2286L10.7946 17.4254C10.253 17.5486 9.8715 18.0286 9.85918 18.5824C9.41612 35.887 19.6315 48.3301 24.0377 52.8839C25.2306 54.1087 26.5606 55.3261 27.8253 56.3324C27.3509 54.9016 27.0779 53.3961 27.0779 51.8504C27.0779 44.0457 33.427 37.6965 41.2317 37.6965Z"/>
<path d="M46.7822 41.5608C45.0837 40.6377 43.1637 40.1577 41.2314 40.1577C34.7822 40.1577 29.5391 45.4008 29.5391 51.85C29.5391 54.0285 30.1299 56.1577 31.2622 57.9792C33.416 61.4623 37.133 63.5423 41.2314 63.5423C47.6683 63.5423 52.9237 58.2992 52.9237 51.85C52.9237 47.5423 50.5729 43.6039 46.7822 41.5608ZM47.2196 50.2932L38.0747 57.4098L34.9527 52.5264C34.5862 51.9537 34.7538 51.1929 35.3265 50.8269C35.8999 50.4603 36.6613 50.6292 37.0261 51.2007L38.6937 53.8089L45.7076 48.3509C46.243 47.9333 47.0171 48.0288 47.4347 48.5661C47.8524 49.1027 47.7556 49.8762 47.2196 50.2932Z"/>

</symbol><symbol id="ic-profits-06" viewBox="0 0 64 64">
<path d="M40.3522 20.3897C41.0842 21.1217 42.2702 21.1237 43.0022 20.3897L45.6102 17.7817C46.3412 17.0497 46.3392 15.8637 45.6102 15.1307L39.0272 8.54973C38.2972 7.81773 37.1112 7.81773 36.3792 8.54973L33.7702 11.1577C33.0402 11.8897 33.0402 13.0757 33.7702 13.8057L40.3522 20.3897Z"/>
<path d="M24.766 36.2677C25.497 36.9967 26.683 36.9967 27.414 36.2677L30.023 33.6577C30.755 32.9277 30.755 31.7407 30.023 31.0087L23.44 24.4257C22.709 23.6957 21.523 23.6937 20.791 24.4257L18.183 27.0337C17.451 27.7657 17.453 28.9517 18.183 29.6837L24.766 36.2677Z"/>
<path d="M54.6481 36.8938L52.0011 34.2438C51.2671 33.5138 50.0841 33.5138 49.3531 34.2438L48.1921 35.4038L36.9871 24.1968L39.4141 21.7688L32.6811 15.0378L30.2531 17.4658L27.1611 20.5558L24.7871 22.9298L31.5191 29.6628L33.8961 27.2898L45.0991 38.4948L44.0511 39.5438C43.3191 40.2728 43.3171 41.4598 44.0511 42.1918L46.6981 44.8398C47.4321 45.5738 48.6171 45.5738 49.3481 44.8398L54.6471 39.5428C55.3801 38.8098 55.3801 37.6258 54.6481 36.8938Z"/>
<path d="M35.077 44.9428C35.077 43.7438 34.105 42.7698 32.904 42.7698H15.936C14.736 42.7698 13.763 43.7438 13.763 44.9428V48.4698H9V55.8588H39.558V48.4698H35.077V44.9428Z"/>

</symbol></svg>