<svg width="24" height="25" viewBox="0 0 24 25" fill="none" xmlns="http://www.w3.org/2000/svg">
<g clip-path="url(#clip0_22721_7601)">
<path d="M24 12.5728C24 5.90492 18.6274 0.499512 12 0.499512C5.37258 0.499512 0 5.90492 0 12.5728C0 18.599 4.38823 23.5938 10.125 24.4995V16.0628H7.07813V12.5728H10.125V9.91294C10.125 6.88706 11.9165 5.21566 14.6576 5.21566C15.9705 5.21566 17.3438 5.45147 17.3438 5.45147V8.42264H15.8306C14.3399 8.42264 13.875 9.3533 13.875 10.3081V12.5728H17.2031L16.6711 16.0628H13.875V24.4995C19.6118 23.5938 24 18.599 24 12.5728Z" fill="#B3B3BA"/>
</g>
<defs>
<clipPath id="clip0_22721_7601">
<rect width="24" height="24" fill="white" transform="translate(0 0.499512)"/>
</clipPath>
</defs>
</svg>
