<svg width="64" height="64" viewBox="0 0 64 64" fill="none" xmlns="http://www.w3.org/2000/svg">
<path d="M42.0059 56H23.0059V62H42.0059V56Z" fill="black"/>
<path d="M42.0059 56H23.0059V62H42.0059V56Z" fill="url(#paint0_linear_22728_12634)"/>
<path d="M15.1728 2.45216L1.73779 15.8872L5.27333 19.4227L18.7084 5.98771L15.1728 2.45216Z" fill="black"/>
<path d="M15.1728 2.45216L1.73779 15.8872L5.27333 19.4227L18.7084 5.98771L15.1728 2.45216Z" fill="url(#paint1_linear_22728_12634)"/>
<path d="M49.1127 2.32166L45.5771 5.85718L59.0122 19.2922L62.5477 15.7567L49.1127 2.32166Z" fill="black"/>
<path d="M49.1127 2.32166L45.5771 5.85718L59.0122 19.2922L62.5477 15.7567L49.1127 2.32166Z" fill="url(#paint2_linear_22728_12634)"/>
<path d="M44.5564 9.70672L41.8651 9.59265C41.089 9.48311 40.2981 9.55542 39.5548 9.80387C38.8115 10.0523 38.1361 10.4701 37.5819 11.0243L32.0775 16.5287L26.3239 10.7752C25.8244 10.2871 25.2011 9.94457 24.5214 9.78441C23.8416 9.62425 23.131 9.65255 22.4661 9.86627C21.8388 10.057 21.1715 10.0738 20.5355 9.91469C19.8995 9.75561 19.3186 9.42671 18.8551 8.96312L18.0012 8.10924L7.39453 18.7158L9.12253 20.4438L9.00845 23.135C8.89891 23.9111 8.97122 24.702 9.21966 25.4453C9.46811 26.1886 9.8859 26.864 10.4401 27.4182L20.0525 37.0306C20.181 35.7688 20.7856 34.6034 21.7432 33.7717L18.7482 30.7768L19.4553 30.0697L22.5836 33.1979C23.027 32.9455 23.5068 32.7631 24.0059 32.6574V28.9634L22.2838 27.2413L22.9908 26.5341L24.0059 27.5492V22.1993C23.9948 21.3151 24.3086 20.4575 24.8879 19.7893C25.4672 19.1211 26.2716 18.6887 27.1485 18.5743C27.4792 18.5422 27.8128 18.5573 28.1393 18.6191L26.9098 17.3897L27.6169 16.6826L29.4131 18.4787C29.7312 17.8623 30.2233 17.3529 30.8283 17.0137C31.4333 16.6745 32.1246 16.5203 32.8165 16.5704C33.6513 16.6679 34.4258 17.0545 35.0057 17.663C35.5855 18.2716 35.9342 19.0638 35.9913 19.9024C36.5596 19.6323 37.1894 19.5177 37.8165 19.5704C38.7075 19.6771 39.5273 20.1109 40.1166 20.7878C40.7059 21.4646 41.0229 22.3362 41.0059 23.2335V26.6574C41.916 26.8474 42.7551 27.2873 43.4292 27.9276C44.1032 28.5679 44.5855 29.3834 44.822 30.2825L47.6105 27.494L48.3176 28.2012L45.0023 31.5164C45.0024 31.5301 45.0059 31.543 45.0059 31.5568V34.8768C45.9043 34.7828 46.7437 34.3847 47.3848 33.7484L54.225 26.9082C54.7131 26.4087 55.0556 25.7854 55.2158 25.1056C55.3759 24.4258 55.3476 23.7152 55.1339 23.0504C54.9431 22.4231 54.9264 21.7558 55.0855 21.1198C55.2445 20.4837 55.5735 19.9029 56.0371 19.4393L56.8909 18.5854L46.2844 7.97876L44.5564 9.70672Z" fill="black"/>
<path d="M44.5564 9.70672L41.8651 9.59265C41.089 9.48311 40.2981 9.55542 39.5548 9.80387C38.8115 10.0523 38.1361 10.4701 37.5819 11.0243L32.0775 16.5287L26.3239 10.7752C25.8244 10.2871 25.2011 9.94457 24.5214 9.78441C23.8416 9.62425 23.131 9.65255 22.4661 9.86627C21.8388 10.057 21.1715 10.0738 20.5355 9.91469C19.8995 9.75561 19.3186 9.42671 18.8551 8.96312L18.0012 8.10924L7.39453 18.7158L9.12253 20.4438L9.00845 23.135C8.89891 23.9111 8.97122 24.702 9.21966 25.4453C9.46811 26.1886 9.8859 26.864 10.4401 27.4182L20.0525 37.0306C20.181 35.7688 20.7856 34.6034 21.7432 33.7717L18.7482 30.7768L19.4553 30.0697L22.5836 33.1979C23.027 32.9455 23.5068 32.7631 24.0059 32.6574V28.9634L22.2838 27.2413L22.9908 26.5341L24.0059 27.5492V22.1993C23.9948 21.3151 24.3086 20.4575 24.8879 19.7893C25.4672 19.1211 26.2716 18.6887 27.1485 18.5743C27.4792 18.5422 27.8128 18.5573 28.1393 18.6191L26.9098 17.3897L27.6169 16.6826L29.4131 18.4787C29.7312 17.8623 30.2233 17.3529 30.8283 17.0137C31.4333 16.6745 32.1246 16.5203 32.8165 16.5704C33.6513 16.6679 34.4258 17.0545 35.0057 17.663C35.5855 18.2716 35.9342 19.0638 35.9913 19.9024C36.5596 19.6323 37.1894 19.5177 37.8165 19.5704C38.7075 19.6771 39.5273 20.1109 40.1166 20.7878C40.7059 21.4646 41.0229 22.3362 41.0059 23.2335V26.6574C41.916 26.8474 42.7551 27.2873 43.4292 27.9276C44.1032 28.5679 44.5855 29.3834 44.822 30.2825L47.6105 27.494L48.3176 28.2012L45.0023 31.5164C45.0024 31.5301 45.0059 31.543 45.0059 31.5568V34.8768C45.9043 34.7828 46.7437 34.3847 47.3848 33.7484L54.225 26.9082C54.7131 26.4087 55.0556 25.7854 55.2158 25.1056C55.3759 24.4258 55.3476 23.7152 55.1339 23.0504C54.9431 22.4231 54.9264 21.7558 55.0855 21.1198C55.2445 20.4837 55.5735 19.9029 56.0371 19.4393L56.8909 18.5854L46.2844 7.97876L44.5564 9.70672Z" fill="url(#paint3_linear_22728_12634)"/>
<path d="M29.8802 21.6894C29.8042 21.0397 29.4757 20.4461 28.9657 20.0366C28.4557 19.6271 27.8051 19.4346 27.1544 19.5007C26.5232 19.5878 25.946 19.9038 25.5326 20.3887C25.1192 20.8735 24.8984 21.4934 24.9121 22.1304V33.4877C23.8512 33.4877 22.8338 33.9092 22.0837 34.6593C21.3335 35.4094 20.9121 36.4269 20.9121 37.4877V47.1612C20.9202 47.8596 21.1187 48.5425 21.4861 49.1364C21.8536 49.7303 22.376 50.2128 22.9973 50.5318C23.5757 50.8404 24.0594 51.3004 24.3967 51.8627C24.734 52.4249 24.9121 53.0682 24.9121 53.7238V54.9314H39.9121V52.4877L41.8958 50.6653C42.522 50.1941 43.0301 49.5837 43.38 48.8824C43.73 48.1811 43.9121 47.4081 43.9121 46.6243V31.4877C43.9121 30.4269 43.4907 29.4094 42.7405 28.6593C41.9904 27.9092 40.973 27.4877 39.9121 27.4877V23.1652C39.9291 22.5179 39.706 21.8873 39.2857 21.3948C38.8655 20.9022 38.2778 20.5826 37.636 20.4976C37.006 20.4419 36.3785 20.6278 35.8804 21.0175C35.3824 21.4073 35.0511 21.9718 34.9537 22.5966H35.4121V38.04H34.4121V22.5966H34.9121V20.1652C34.9291 19.5179 34.706 18.8873 34.2857 18.3948C33.8655 17.9022 33.2778 17.5826 32.636 17.4976C32.2902 17.4665 31.9417 17.5078 31.6128 17.6189C31.2838 17.7299 30.9816 17.9082 30.7254 18.1425C30.4691 18.3767 30.2645 18.6618 30.1245 18.9795C29.9845 19.2972 29.9121 19.6405 29.9121 19.9877V21.6894H30.4121V37.1327H29.4121V21.6894H29.8802ZM25.3113 42.04H24.3113V34.04H25.3113V42.04ZM39.4121 27.7982H40.4121V38.2416H39.4121V27.7982Z" fill="black"/>
<path d="M29.8802 21.6894C29.8042 21.0397 29.4757 20.4461 28.9657 20.0366C28.4557 19.6271 27.8051 19.4346 27.1544 19.5007C26.5232 19.5878 25.946 19.9038 25.5326 20.3887C25.1192 20.8735 24.8984 21.4934 24.9121 22.1304V33.4877C23.8512 33.4877 22.8338 33.9092 22.0837 34.6593C21.3335 35.4094 20.9121 36.4269 20.9121 37.4877V47.1612C20.9202 47.8596 21.1187 48.5425 21.4861 49.1364C21.8536 49.7303 22.376 50.2128 22.9973 50.5318C23.5757 50.8404 24.0594 51.3004 24.3967 51.8627C24.734 52.4249 24.9121 53.0682 24.9121 53.7238V54.9314H39.9121V52.4877L41.8958 50.6653C42.522 50.1941 43.0301 49.5837 43.38 48.8824C43.73 48.1811 43.9121 47.4081 43.9121 46.6243V31.4877C43.9121 30.4269 43.4907 29.4094 42.7405 28.6593C41.9904 27.9092 40.973 27.4877 39.9121 27.4877V23.1652C39.9291 22.5179 39.706 21.8873 39.2857 21.3948C38.8655 20.9022 38.2778 20.5826 37.636 20.4976C37.006 20.4419 36.3785 20.6278 35.8804 21.0175C35.3824 21.4073 35.0511 21.9718 34.9537 22.5966H35.4121V38.04H34.4121V22.5966H34.9121V20.1652C34.9291 19.5179 34.706 18.8873 34.2857 18.3948C33.8655 17.9022 33.2778 17.5826 32.636 17.4976C32.2902 17.4665 31.9417 17.5078 31.6128 17.6189C31.2838 17.7299 30.9816 17.9082 30.7254 18.1425C30.4691 18.3767 30.2645 18.6618 30.1245 18.9795C29.9845 19.2972 29.9121 19.6405 29.9121 19.9877V21.6894H30.4121V37.1327H29.4121V21.6894H29.8802ZM25.3113 42.04H24.3113V34.04H25.3113V42.04ZM39.4121 27.7982H40.4121V38.2416H39.4121V27.7982Z" fill="url(#paint4_linear_22728_12634)"/>
<defs>
<linearGradient id="paint0_linear_22728_12634" x1="32.5059" y1="56" x2="32.5059" y2="62" gradientUnits="userSpaceOnUse">
<stop stop-color="#EF8080"/>
<stop offset="1" stop-color="#F0145A"/>
</linearGradient>
<linearGradient id="paint1_linear_22728_12634" x1="8.45531" y1="9.16969" x2="11.9909" y2="12.7052" gradientUnits="userSpaceOnUse">
<stop stop-color="#EF8080"/>
<stop offset="1" stop-color="#F0145A"/>
</linearGradient>
<linearGradient id="paint2_linear_22728_12634" x1="47.3449" y1="4.08942" x2="60.78" y2="17.5245" gradientUnits="userSpaceOnUse">
<stop stop-color="#EF8080"/>
<stop offset="1" stop-color="#F0145A"/>
</linearGradient>
<linearGradient id="paint3_linear_22728_12634" x1="32.1427" y1="7.97876" x2="32.1427" y2="37.0306" gradientUnits="userSpaceOnUse">
<stop stop-color="#EF8080"/>
<stop offset="1" stop-color="#F0145A"/>
</linearGradient>
<linearGradient id="paint4_linear_22728_12634" x1="32.4121" y1="17.4875" x2="32.4121" y2="54.9314" gradientUnits="userSpaceOnUse">
<stop stop-color="#EF8080"/>
<stop offset="1" stop-color="#F0145A"/>
</linearGradient>
</defs>
</svg>
