<svg width="130" height="60" viewBox="0 0 130 60" fill="none" xmlns="http://www.w3.org/2000/svg">
<path d="M4.95684 -0.000488281H0.00012207V35.7981H4.95684V22.5172C4.95684 20.2704 5.51569 18.4979 6.63338 17.2497C7.75107 16.0015 9.28182 15.3525 11.177 15.3525C12.805 15.3525 14.1657 15.9516 15.259 17.1C16.3524 18.2733 16.9113 19.7462 16.9113 21.5186V35.8231H21.8923V21.5186C21.8923 18.2233 20.9933 15.6271 19.1953 13.6799C17.3972 11.7327 15.0404 10.7591 12.1732 10.7591C11.3471 10.7591 10.521 10.8589 9.71918 11.0836C8.89306 11.3083 8.23702 11.5579 7.70248 11.8325C7.16793 12.1071 6.65768 12.4067 6.19602 12.7562C5.73437 13.1057 5.4185 13.3553 5.27271 13.5051C5.12693 13.6549 5.00544 13.7548 4.95684 13.8297V-0.000488281Z" fill="#F0145A"/>
<path d="M32.9728 -0.000488281H27.8629V35.7684H32.9728V-0.000488281Z" fill="#323264"/>
<path d="M63.1116 25.2925L63.3671 22.7376C63.3671 19.314 62.2429 16.4525 59.9435 14.1531C57.6441 11.8537 54.7825 10.7295 51.359 10.7295C47.9354 10.7295 44.9717 11.9559 42.5189 14.4086C40.0662 16.8613 38.8398 19.7739 38.8398 23.2486C38.8398 26.8255 40.1173 29.8914 42.6211 32.4463C45.1249 35.0012 48.1398 36.2787 51.6144 36.2787C52.943 36.2787 54.1694 36.0743 55.3957 35.7166C56.6221 35.3078 57.6441 34.899 58.3594 34.4902C59.1259 34.0304 59.8924 33.5194 60.5567 32.9573C61.2209 32.3952 61.6808 31.9864 61.8852 31.7309C62.0896 31.4754 62.2429 31.3221 62.3451 31.1689L59.0237 27.8475L58.2572 28.8183C57.7463 29.4315 56.8776 30.0447 55.6512 30.709C54.3738 31.3732 53.0452 31.6798 51.6144 31.6798C49.6216 31.6798 47.9354 31.0667 46.5046 29.7892C45.0738 28.5117 44.2052 27.0299 43.9497 25.2925H63.1116ZM51.359 15.0729C53.2496 15.0729 54.7825 15.6349 56.06 16.708C57.2864 17.8322 58.0528 19.2118 58.3594 20.9492H44.1541C44.614 19.2118 45.4315 17.8322 46.709 16.708C47.9354 15.6349 49.5194 15.0729 51.359 15.0729Z" fill="#323264"/>
<path d="M86.943 34.2858C86.943 36.5342 86.2787 38.3737 84.8991 39.8045C83.5705 41.1841 81.8843 41.8995 79.7892 41.8995C78.8695 41.8995 77.9497 41.7462 77.081 41.4907C76.2124 41.2352 75.5481 40.9286 74.986 40.5709C74.4239 40.2132 73.9129 39.8556 73.4019 39.3957C72.9421 38.9358 72.6355 38.6292 72.4822 38.4759C72.3289 38.3226 72.2267 38.1693 72.1245 38.0671L68.8031 41.3885L69.2119 41.8995C69.4674 42.2572 69.9273 42.7171 70.5404 43.2281C71.1536 43.6879 71.869 44.1989 72.6866 44.7099C73.5041 45.1698 74.5261 45.5786 75.8036 45.9363C77.081 46.294 78.4096 46.4983 79.7892 46.4983C83.2639 46.4983 86.1254 45.3231 88.5271 42.9726C90.8776 40.5709 92.0528 37.7094 92.0528 34.2347V11.2405H86.943V13.7954L86.0743 13.0289C85.5123 12.5179 84.6436 12.007 83.4172 11.496C82.1909 10.985 80.8623 10.7295 79.5338 10.7295C76.4168 10.7295 73.7596 11.9048 71.4602 14.3064C69.1608 16.708 68.0366 19.5695 68.0366 22.9931C68.0366 26.4167 69.1608 29.2782 71.4602 31.6798C73.7596 34.0814 76.4168 35.2567 79.5338 35.2567C80.4024 35.2567 81.22 35.1545 82.0887 34.9501C82.9062 34.6946 83.5705 34.4391 84.1326 34.1836C84.6947 33.9282 85.2057 33.6216 85.6656 33.2639C86.1254 32.9062 86.4831 32.6507 86.5853 32.5485L86.943 32.1908V34.2858ZM73.1465 22.9931C73.1465 20.847 73.8107 19.0585 75.1904 17.5767C76.57 16.0948 78.2052 15.3283 80.0447 15.3283C81.8843 15.3283 83.5194 16.0948 84.8991 17.5767C86.2276 19.0585 86.943 20.847 86.943 22.9931C86.943 25.1392 86.2276 26.9277 84.8991 28.4095C83.5194 29.8914 81.8843 30.6579 80.0447 30.6579C78.2052 30.6579 76.57 29.8914 75.1904 28.4095C73.8107 26.9277 73.1465 25.1392 73.1465 22.9931Z" fill="#323264"/>
<path d="M118.724 35.7677V19.9272C118.724 17.3212 117.753 15.124 115.863 13.3866C113.972 11.5982 111.519 10.7295 108.504 10.7295C107.329 10.7295 106.154 10.8828 105.03 11.1894C103.906 11.5471 102.986 11.9048 102.322 12.3135C101.657 12.7223 100.993 13.1822 100.38 13.7443C99.7666 14.2553 99.409 14.613 99.2046 14.8174C99.0513 15.0218 98.898 15.1751 98.7958 15.3283L102.117 18.6497L102.781 17.7811C103.19 17.219 103.906 16.708 104.979 16.1459C106.052 15.5838 107.227 15.3283 108.504 15.3283C109.986 15.3283 111.213 15.7882 112.184 16.6569C113.154 17.5256 113.614 18.6497 113.614 19.9272L104.672 21.4602C102.475 21.8178 100.686 22.6865 99.46 24.0662C98.1826 25.4458 97.5183 27.1321 97.5183 29.1249C97.5183 31.0156 98.3359 32.6507 99.971 34.0815C101.657 35.5633 103.701 36.2787 106.205 36.2787C107.074 36.2787 107.891 36.1765 108.709 35.921C109.578 35.7166 110.242 35.4611 110.804 35.2056C111.366 34.9501 111.877 34.6435 112.337 34.2859C112.797 33.9282 113.103 33.6727 113.308 33.5705C113.461 33.4172 113.563 33.2639 113.614 33.2128V35.7677H118.724ZM106.972 31.6798C105.643 31.6798 104.57 31.3732 103.803 30.7601C102.986 30.1469 102.628 29.4315 102.628 28.6139C102.628 27.7453 102.884 26.9788 103.446 26.4167C104.008 25.8546 104.774 25.4458 105.694 25.2925L113.614 24.0151V24.5261C113.614 26.8255 113.052 28.5628 111.877 29.8403C110.702 31.0667 109.067 31.6798 106.972 31.6798Z" fill="#323264"/>
<path d="M130 -0.000488281H124.89V35.7684H130V-0.000488281Z" fill="#323264"/>
<path d="M0.00012207 53.118H1.59927V58.7249H5.06409V60.0279H0.00012207V53.118Z" fill="#323264"/>
<path d="M15.5017 58.5472H12.2936L11.6815 60.0279H10.0429L13.1227 53.118H14.7022L17.7919 60.0279H16.1137L15.5017 58.5472ZM14.9983 57.333L13.9026 54.6875L12.8069 57.333H14.9983Z" fill="#323264"/>
<path d="M33.5123 53.118L31.2517 60.0279H29.5341L28.014 55.3489L26.4444 60.0279H24.7367L22.4663 53.118H24.1247L25.6843 57.9746L27.3131 53.118H28.7938L30.3732 58.0141L31.9822 53.118H33.5123Z" fill="#323264"/>
<path d="M50.5233 60.1463C49.8192 60.1463 49.1808 59.995 48.6083 59.6922C48.0423 59.3829 47.5948 58.9585 47.2658 58.4188C46.9433 57.8726 46.7821 57.2573 46.7821 56.5729C46.7821 55.8885 46.9433 55.2765 47.2658 54.7369C47.5948 54.1906 48.0423 53.7662 48.6083 53.4635C49.1808 53.1542 49.8225 52.9995 50.5332 52.9995C51.132 52.9995 51.6717 53.1048 52.1521 53.3154C52.6391 53.526 53.0471 53.8287 53.3761 54.2236L52.3495 55.1712C51.8823 54.6316 51.3031 54.3617 50.6122 54.3617C50.1844 54.3617 49.8027 54.4572 49.4671 54.648C49.1315 54.8323 48.8682 55.0922 48.6774 55.4278C48.4931 55.7635 48.401 56.1452 48.401 56.5729C48.401 57.0007 48.4931 57.3824 48.6774 57.718C48.8682 58.0536 49.1315 58.3168 49.4671 58.5077C49.8027 58.6919 50.1844 58.7841 50.6122 58.7841C51.3031 58.7841 51.8823 58.511 52.3495 57.9648L53.3761 58.9124C53.0471 59.3138 52.6391 59.6198 52.1521 59.8304C51.6651 60.041 51.1222 60.1463 50.5233 60.1463Z" fill="#323264"/>
<path d="M62.5934 60.1463C61.8761 60.1463 61.2279 59.9917 60.6488 59.6824C60.0762 59.3731 59.6255 58.9486 59.2964 58.409C58.974 57.8628 58.8127 57.2507 58.8127 56.5729C58.8127 55.8951 58.974 55.2864 59.2964 54.7467C59.6255 54.2005 60.0762 53.7728 60.6488 53.4635C61.2279 53.1542 61.8761 52.9995 62.5934 52.9995C63.3107 52.9995 63.9557 53.1542 64.5282 53.4635C65.1007 53.7728 65.5515 54.2005 65.8806 54.7467C66.2096 55.2864 66.3741 55.8951 66.3741 56.5729C66.3741 57.2507 66.2096 57.8628 65.8806 58.409C65.5515 58.9486 65.1007 59.3731 64.5282 59.6824C63.9557 59.9917 63.3107 60.1463 62.5934 60.1463ZM62.5934 58.7841C63.0014 58.7841 63.37 58.6919 63.699 58.5077C64.028 58.3168 64.2847 58.0536 64.469 57.718C64.6598 57.3824 64.7552 57.0007 64.7552 56.5729C64.7552 56.1452 64.6598 55.7635 64.469 55.4278C64.2847 55.0922 64.028 54.8323 63.699 54.648C63.37 54.4572 63.0014 54.3617 62.5934 54.3617C62.1854 54.3617 61.8169 54.4572 61.4878 54.648C61.1588 54.8323 60.8988 55.0922 60.708 55.4278C60.5237 55.7635 60.4316 56.1452 60.4316 56.5729C60.4316 57.0007 60.5237 57.3824 60.708 57.718C60.8988 58.0536 61.1588 58.3168 61.4878 58.5077C61.8169 58.6919 62.1854 58.7841 62.5934 58.7841Z" fill="#323264"/>
<path d="M78.7996 60.0279L78.7897 55.8819L76.7562 59.2974H76.0356L74.012 55.9708V60.0279H72.5116V53.118H73.8343L76.4206 57.412L78.9674 53.118H80.2803L80.3 60.0279H78.7996Z" fill="#323264"/>
<path d="M89.8661 53.118C90.4781 53.118 91.0078 53.22 91.4553 53.424C91.9094 53.628 92.2582 53.9175 92.5017 54.2926C92.7452 54.6678 92.8669 55.112 92.8669 55.6253C92.8669 56.132 92.7452 56.5762 92.5017 56.9579C92.2582 57.333 91.9094 57.6226 91.4553 57.8266C91.0078 58.024 90.4781 58.1227 89.8661 58.1227H88.4742V60.0279H86.8751V53.118H89.8661ZM89.7772 56.8197C90.2576 56.8197 90.6229 56.7177 90.8729 56.5137C91.123 56.3031 91.248 56.007 91.248 55.6253C91.248 55.237 91.123 54.9409 90.8729 54.7369C90.6229 54.5263 90.2576 54.421 89.7772 54.421H88.4742V56.8197H89.7772Z" fill="#323264"/>
<path d="M103.148 58.5472H99.9397L99.3277 60.0279H97.689L100.769 53.118H102.348L105.438 60.0279H103.76L103.148 58.5472ZM102.644 57.333L101.549 54.6875L100.453 57.333H102.644Z" fill="#323264"/>
<path d="M117.428 53.118V60.0279H116.115L112.67 55.8326V60.0279H111.091V53.118H112.413L115.848 57.3133V53.118H117.428Z" fill="#323264"/>
<path d="M127.315 57.5798V60.0279H125.716V57.56L123.041 53.118H124.739L126.585 56.1879L128.431 53.118H130L127.315 57.5798Z" fill="#323264"/>
</svg>
