<svg xmlns="http://www.w3.org/2000/svg" xmlns:xlink="http://www.w3.org/1999/xlink"><defs>
<clipPath id="clip0_22728_12366">
<rect width="42" height="42"/>
</clipPath>

<clipPath id="clip0_22721_7601">
<rect width="24" height="24" transform="translate(0 0.499512)"/>
</clipPath>
</defs><symbol id="arrow" viewBox="0 0 12 13">
<path d="M3.5 2L8 6.5L3.5 11" stroke="#24A3FF" stroke-width="2"/>
</symbol><symbol id="btn-scroll" viewBox="0 0 42 42">
<g clip-path="url(#clip0_22728_12366)">
<circle opacity="0.5" cx="21" cy="21" r="20" stroke="white" stroke-width="2"/>
<path d="M12 18L21 27L30 18" stroke="white" stroke-width="2"/>
</g>

</symbol><symbol id="fb" viewBox="0 0 24 25">
<g clip-path="url(#clip0_22721_7601)">
<path d="M24 12.5728C24 5.90492 18.6274 0.499512 12 0.499512C5.37258 0.499512 0 5.90492 0 12.5728C0 18.599 4.38823 23.5938 10.125 24.4995V16.0628H7.07813V12.5728H10.125V9.91294C10.125 6.88706 11.9165 5.21566 14.6576 5.21566C15.9705 5.21566 17.3438 5.45147 17.3438 5.45147V8.42264H15.8306C14.3399 8.42264 13.875 9.3533 13.875 10.3081V12.5728H17.2031L16.6711 16.0628H13.875V24.4995C19.6118 23.5938 24 18.599 24 12.5728Z"/>
</g>

</symbol><symbol id="ic-statistic-01" viewBox="0 0 32 32">
<path d="M27.1137 6.3054C26.9447 6.1374 26.7457 6.0529 26.5157 6.0529C26.4012 6.0529 26.1597 6.1469 25.7927 6.3324C25.4252 6.5184 25.0352 6.7254 24.6247 6.9564C24.2132 7.1859 23.7262 7.3939 23.1642 7.5799C22.6027 7.7654 22.0827 7.8594 21.6042 7.8594C21.1622 7.8594 20.7722 7.7754 20.4362 7.6069C19.3217 7.0849 18.3522 6.6954 17.5292 6.4384C16.7062 6.1819 15.8212 6.0529 14.8737 6.0529C13.2377 6.0529 11.3742 6.5849 9.28524 7.6469C8.85424 7.8619 8.54524 8.0284 8.34524 8.1504L8.14674 6.6949C8.59524 6.3054 8.88474 5.7379 8.88474 5.0974C8.88474 3.9239 7.93374 2.9729 6.76024 2.9729C5.58674 2.9729 4.63574 3.9239 4.63574 5.0974C4.63574 5.8629 5.04474 6.5284 5.65174 6.9024L8.52174 27.9474C8.60724 28.5739 9.14324 29.0284 9.75874 29.0284C9.81474 29.0284 9.87174 29.0249 9.92924 29.0174C10.6132 28.9234 11.0922 28.2939 10.9987 27.6099L9.84524 19.1514C11.9382 18.1129 13.7487 17.5894 15.2717 17.5894C15.9182 17.5894 16.5487 17.6859 17.1632 17.8809C17.7782 18.0764 18.2897 18.2884 18.6967 18.5179C19.1037 18.7479 19.5842 18.9609 20.1367 19.1549C20.6902 19.3499 21.2367 19.4474 21.7762 19.4474C23.1392 19.4474 24.7717 18.9339 26.6742 17.9074C26.9132 17.7834 27.0882 17.6614 27.1987 17.5419C27.3092 17.4224 27.3647 17.2524 27.3647 17.0314V6.9029C27.3647 6.6734 27.2812 6.4739 27.1137 6.3054Z"/>
</symbol><symbol id="ic-statistic-02" viewBox="0 0 32 32">
<path d="M17.2321 18.332V17.774C17.2321 17.0935 16.6806 16.542 16.0006 16.542C15.3201 16.542 14.7686 17.0935 14.7686 17.774V18.332C14.7686 19.0125 15.3201 19.564 16.0006 19.564C16.6801 19.564 17.2321 19.0125 17.2321 18.332Z"/>
<path d="M18.0769 19.0136C17.8039 19.9071 16.9814 20.5631 16.0004 20.5631C15.0189 20.5631 14.1964 19.9071 13.9234 19.0136H5.43886C4.90336 19.0136 4.39736 18.8891 3.94336 18.6731V24.3066C3.94336 25.4066 4.84336 26.3066 5.94336 26.3066H26.0564C27.1564 26.3066 28.0564 25.4066 28.0564 24.3066V18.6736C27.6019 18.8896 27.0964 19.0141 26.5609 19.0141H18.0769V19.0136Z"/>
<path d="M26.4775 8.8976H21.677C21.387 7.0846 19.8165 5.6936 17.923 5.6936H14.0765C12.183 5.6936 10.613 7.0846 10.3225 8.8976H5.52247C4.37647 8.8976 3.43896 9.7976 3.43896 10.8976V15.5141C3.43896 16.6186 4.33447 17.5141 5.43897 17.5141H13.829C13.8575 16.9386 14.1045 16.4216 14.495 16.0476C14.507 16.0361 14.521 16.0271 14.5335 16.0161C14.62 15.9366 14.71 15.8616 14.8085 15.7966C14.8435 15.7731 14.8835 15.7571 14.92 15.7361C15.001 15.6896 15.081 15.6411 15.1685 15.6051C15.237 15.5766 15.311 15.5601 15.383 15.5386C15.445 15.5201 15.504 15.4956 15.5685 15.4826C15.708 15.4541 15.8525 15.4391 16 15.4391C16.148 15.4391 16.292 15.4546 16.4315 15.4826C16.4955 15.4956 16.5545 15.5201 16.6165 15.5386C16.6885 15.5601 16.7625 15.5766 16.831 15.6056C16.918 15.6416 16.9975 15.6896 17.0785 15.7361C17.1155 15.7576 17.1555 15.7736 17.191 15.7971C17.2895 15.8616 17.379 15.9366 17.4655 16.0161C17.478 16.0276 17.4925 16.0366 17.5045 16.0486C17.8955 16.4226 18.142 16.9396 18.1705 17.5151H26.5605C27.665 17.5151 28.5605 16.6196 28.5605 15.5151V10.8986C28.561 9.7976 27.6235 8.8976 26.4775 8.8976ZM12.248 8.8976C12.503 8.1271 13.2215 7.5656 14.0765 7.5656H17.923C18.778 7.5656 19.4965 8.1271 19.7515 8.8976H12.248Z"/>
</symbol><symbol id="ic-statistic-03" viewBox="0 0 32 32">
<path d="M16.0971 3.55298C9.25258 3.55298 3.68408 9.12148 3.68408 15.966C3.68408 22.811 9.25258 28.38 16.0971 28.38C22.9416 28.38 28.5101 22.811 28.5101 15.966C28.5106 9.12148 22.9421 3.55298 16.0971 3.55298ZM22.9556 15.0585V15.059L19.3621 17.659L20.7461 21.889C20.7681 21.955 20.7796 22.0255 20.7796 22.0975C20.7796 22.467 20.4806 22.767 20.1111 22.767C19.9641 22.767 19.8291 22.72 19.7191 22.6405L16.0976 20.021L12.4761 22.6405C12.3661 22.72 12.2311 22.767 12.0846 22.767C11.7146 22.767 11.4151 22.4675 11.4151 22.0975C11.4151 22.025 11.4271 21.955 11.4491 21.889L12.8336 17.659L9.24008 15.059V15.0585C9.07208 14.9375 8.96308 14.74 8.96308 14.517C8.96308 14.1475 9.26208 13.8485 9.63208 13.8485H14.0806L15.4581 9.63798C15.5421 9.36448 15.7966 9.16548 16.0981 9.16548C16.3991 9.16548 16.6541 9.36448 16.7376 9.63798L18.1151 13.8485H22.5636C22.9331 13.8485 23.2326 14.1475 23.2326 14.517C23.2321 14.74 23.1231 14.9375 22.9556 15.0585Z"/>
</symbol></svg>